<svg width="64" height="66" viewBox="0 0 64 66" fill="none" xmlns="http://www.w3.org/2000/svg">
<path d="M14 54V12.1634H37.8418V15.5953H17.7624V31.3453H35.9706V34.7772H17.7624V54H14Z" fill="#0077B6"/>
<path d="M46.4932 54V22.6226H50.0946V54H46.4932ZM48.3241 17.2296C47.5864 17.2296 46.956 16.9776 46.4328 16.4737C45.9097 15.9562 45.6482 15.3366 45.6482 14.6148C45.6482 13.893 45.9097 13.2802 46.4328 12.7763C46.956 12.2588 47.5864 12 48.3241 12C49.0618 12 49.6922 12.2588 50.2153 12.7763C50.7384 13.2802 51 13.893 51 14.6148C51 15.3366 50.7384 15.9562 50.2153 16.4737C49.6922 16.9776 49.0618 17.2296 48.3241 17.2296Z" fill="#0077B6"/>
<rect x="2" y="2" width="60" height="62" rx="2" stroke="#0077B6" stroke-width="4"/>
</svg>
